<svg width="10" height="6" viewBox="0 0 10 6" fill="none" xmlns="http://www.w3.org/2000/svg">
<path fill-rule="evenodd" clip-rule="evenodd" d="M0.763508 0.563822C0.932283 0.395098 1.16116 0.300314 1.39981 0.300314C1.63846 0.300314 1.86733 0.395098 2.03611 0.563822L4.99981 3.52752L7.96351 0.563822C8.04653 0.477863 8.14584 0.409299 8.25564 0.362131C8.36545 0.314963 8.48355 0.290135 8.60305 0.289096C8.72255 0.288058 8.84106 0.310829 8.95167 0.356082C9.06227 0.401335 9.16276 0.468163 9.24726 0.552666C9.33177 0.63717 9.39859 0.737657 9.44385 0.848263C9.4891 0.95887 9.51187 1.07738 9.51083 1.19688C9.5098 1.31638 9.48497 1.43448 9.4378 1.54429C9.39063 1.65409 9.32207 1.7534 9.23611 1.83642L5.63611 5.43642C5.46733 5.60515 5.23846 5.69993 4.99981 5.69993C4.76116 5.69993 4.53228 5.60515 4.36351 5.43642L0.763508 1.83642C0.594784 1.66765 0.5 1.43877 0.5 1.20012C0.5 0.961474 0.594784 0.732597 0.763508 0.563822Z" fill="#6B7280"/>
</svg>
