<svg width="18" height="19" viewBox="0 0 18 19" fill="none" xmlns="http://www.w3.org/2000/svg">
<path fill-rule="evenodd" clip-rule="evenodd" d="M3.86312 4.3646C4.03189 4.19588 4.26077 4.1011 4.49942 4.1011C4.73806 4.1011 4.96694 4.19588 5.13572 4.3646L8.99942 8.2283L12.8631 4.3646C12.9461 4.27864 13.0455 4.21008 13.1553 4.16291C13.2651 4.11574 13.3832 4.09092 13.5027 4.08988C13.6222 4.08884 13.7407 4.11161 13.8513 4.15686C13.9619 4.20212 14.0624 4.26894 14.1469 4.35345C14.2314 4.43795 14.2982 4.53844 14.3435 4.64904C14.3887 4.75965 14.4115 4.87816 14.4104 4.99766C14.4094 5.11717 14.3846 5.23526 14.3374 5.34507C14.2902 5.45487 14.2217 5.55418 14.1357 5.6372L10.272 9.5009L14.1357 13.3646C14.2997 13.5343 14.3904 13.7617 14.3883 13.9977C14.3863 14.2336 14.2916 14.4594 14.1248 14.6262C13.9579 14.7931 13.7322 14.8878 13.4962 14.8898C13.2602 14.8919 13.0329 14.8011 12.8631 14.6372L8.99942 10.7735L5.13572 14.6372C4.96598 14.8011 4.73863 14.8919 4.50266 14.8898C4.26668 14.8878 4.04095 14.7931 3.87408 14.6262C3.70721 14.4594 3.61256 14.2336 3.61051 13.9977C3.60846 13.7617 3.69918 13.5343 3.86312 13.3646L7.72682 9.5009L3.86312 5.6372C3.69439 5.46843 3.59961 5.23955 3.59961 5.0009C3.59961 4.76226 3.69439 4.53338 3.86312 4.3646Z" fill="#9CA3AF"/>
</svg>
